<svg class="icon" viewBox="0 0 1024 1024" xmlns="http://www.w3.org/2000/svg" width="32" height="32"><defs><style/></defs><path d="M731.436 182.85c49.163 0 95.365 19.16 130.142 53.913 71.75 71.744 71.75 188.512 0 260.29l-42.693 42.691L669.41 689.225 519.96 838.643c-.17.17-.574.576-2.098.576h-.087l-5.15-.374-4.718.404c-1.265 0-1.699-.436-1.87-.606L356.384 689.225l-192.398-192.2c-34.81-34.753-53.997-80.953-53.997-130.118s19.188-95.365 53.966-130.117c34.811-34.78 81.126-53.94 130.377-53.94s95.54 19.16 130.347 53.94l42.781 42.72 4.917 4.92L513 324.933l40.62-40.503 5.004-4.978 42.633-42.69c34.808-34.751 81.01-53.913 130.179-53.913m0-57.534c-61.799 0-123.648 23.589-170.828 70.768l-42.664 42.69h-.025l-4.891 4.921-4.92-4.92h-.031l-42.72-42.69c-47.237-47.18-109.118-70.77-170.994-70.77-61.912 0-123.82 23.59-171.025 70.77-94.48 94.329-94.48 247.316 0 341.645l192.4 192.201h.03L465.39 879.35c11.763 11.737 27.127 17.435 42.549 17.435 1.725 0 3.42-.087 5.149-.233 1.695.144 3.424.233 5.119.233 15.362 0 30.722-5.698 42.461-17.435l149.45-149.42.201-.202 149.278-149.274 42.69-42.693c94.334-94.386 94.334-247.316 0-341.65-47.209-47.206-109.033-70.796-170.851-70.796zm0 0" fill="#dbdbdb"/></svg>