<svg class="icon" viewBox="0 0 1024 1024" xmlns="http://www.w3.org/2000/svg" width="32" height="32"><defs><style/></defs><path d="M189.711 275.621h-42.979c-11.88 0-21.537-9.641-21.537-21.52 0-11.865 9.658-21.458 21.537-21.458h42.98c11.879 0 21.44 9.593 21.44 21.457 0 11.88-9.561 21.521-21.44 21.521zm687.662 0H361.627c-11.88 0-21.538-9.641-21.538-21.52 0-11.865 9.658-21.458 21.538-21.458h515.746c11.8 0 21.441 9.593 21.441 21.457 0 11.88-9.641 21.521-21.441 21.521zM189.711 533.495h-42.979c-11.88 0-21.537-9.642-21.537-21.522 0-11.864 9.658-21.457 21.537-21.457h42.98c11.879 0 21.44 9.593 21.44 21.457 0 11.88-9.561 21.522-21.44 21.522zm687.662 0H361.627c-11.88 0-21.538-9.642-21.538-21.522 0-11.864 9.658-21.457 21.538-21.457h515.746c11.8 0 21.441 9.593 21.441 21.457 0 11.88-9.641 21.522-21.441 21.522zM189.711 791.368h-42.979c-11.88 0-21.537-9.642-21.537-21.521 0-11.865 9.658-21.458 21.537-21.458h42.98c11.879 0 21.44 9.593 21.44 21.458 0 11.88-9.561 21.52-21.44 21.52zm687.662 0H361.627c-11.88 0-21.538-9.642-21.538-21.521 0-11.865 9.658-21.458 21.538-21.458h515.746c11.8 0 21.441 9.593 21.441 21.458 0 11.88-9.641 21.52-21.441 21.52z" fill="#dbdbdb"/></svg>