<svg class="icon" viewBox="0 0 1024 1024" xmlns="http://www.w3.org/2000/svg" width="32" height="32"><defs><style/></defs><path d="M174.087 63.84c-13.835 0-25.03 11.195-25.03 25.03v846.258c0 13.836 11.195 25.031 25.03 25.031 13.837 0 25.03-11.194 25.03-25.031V530.4c0 14.396 8.678 26.986 21.853 35.272l550.794 347.115c10.17 6.404 24.835 9.778 36.665 9.778 35.004 0 66.513-28.501 66.513-63.457V164.89c0-34.98-32.756-63.431-67.734-63.431-11.808 0-25.568 3.373-35.738 9.753L222.021 458.315c-13.175 8.262-22.904 20.875-22.904 35.248V88.87c0-13.835-11.194-25.03-25.03-25.03zm68.614 436.86L795.94 153.623c2.223-1.393 8.848-2.102 11.269-2.102 6.427 0 17.672 5.108 17.672 13.37v694.218c0 11.342-16.524 16.379-24.663 11.294L244.852 523.287c-5.622-3.57-7.333-9.093-7.333-11.293 0-2.25-.44-7.773 5.182-11.293z" fill="#dbdbdb"/></svg>