<svg class="icon" viewBox="0 0 1024 1024" xmlns="http://www.w3.org/2000/svg" width="32" height="32"><defs><style/></defs><path d="M849.912 960.159c13.835 0 25.03-11.194 25.03-25.031V88.87c0-13.835-11.195-25.03-25.03-25.03S824.88 75.035 824.88 88.87v400.635c0-11.954-15.62-22.44-26.937-29.529L237.641 109.33c-9.85-6.184-18.382-9.436-29.822-9.436-33.928 0-58.763 27.573-58.763 61.476v701.26c0 33.878 24.126 61.5 58.053 61.5 11.441 0 20.974-3.275 30.825-9.486l560.889-350.633c11.317-7.09 26.056-17.575 26.056-29.528V935.13c.001 13.836 11.197 25.03 25.033 25.03zm-81.447-438.51l-558.86 350.61c-1.907 1.173-.44 1.81-2.494 1.81-4.62 0-7.994-3.666-7.994-11.44V161.372c0-7.822 3.373-11.415 7.994-11.415 2.053 0 2.322.611 4.229 1.785l557.957 350.623c4.642 2.909 4.936 7.284 4.936 9.655 0 2.346-1.15 6.722-5.768 9.63z" fill="#dbdbdb"/></svg>