<?xml version="1.0" standalone="no"?><!DOCTYPE svg PUBLIC "-//W3C//DTD SVG 1.1//EN" "http://www.w3.org/Graphics/SVG/1.1/DTD/svg11.dtd"><svg t="1520475809291" class="icon" style="" viewBox="0 0 1024 1024" version="1.1" xmlns="http://www.w3.org/2000/svg" p-id="2838" xmlns:xlink="http://www.w3.org/1999/xlink" width="32" height="32"><defs><style type="text/css"></style></defs><path d="M731.43552 182.84928c49.16352 0 95.36512 19.16032 130.14272 53.9136 71.74912 71.744 71.74912 188.512 0 260.29056l-42.69312 42.69056L669.40928 689.22496 519.96032 838.6432c-0.17024 0.17024-0.57472 0.576-2.09792 0.576l-0.08704 0-5.14944-0.37376-4.71936 0.4032c-1.26464 0-1.69856-0.4352-1.87008-0.60544L356.38528 689.22496 163.9872 497.02528C129.1776 462.272 109.9904 416.07168 109.9904 366.90688s19.1872-95.36512 53.96608-130.11712c34.81088-34.77888 81.12512-53.94048 130.37696-53.94048s95.54048 19.16032 130.34624 53.94048l42.78144 42.72 4.91648 4.92032 40.62208 40.50304 40.6208-40.50304 5.00352-4.97792 42.63296-42.68928C636.06528 202.01088 682.26688 182.84928 731.43552 182.84928M731.43552 125.31456c-61.7984 0-123.648 23.58912-170.82752 70.76864l-42.66368 42.69056-0.0256 0-4.89088 4.92032-4.92032-4.92032-0.03072 0-42.72-42.69056c-47.23712-47.17952-109.11744-70.76864-170.99392-70.76864-61.91232 0-123.81952 23.58912-171.02464 70.76864-94.47936 94.3296-94.47936 247.31648 0 341.64608L315.7376 729.93024l0.03072 0 149.62176 149.41952c11.7632 11.7376 27.12704 17.43488 42.54848 17.43488 1.72544 0 3.42016-0.08704 5.14944-0.23296 1.69472 0.14464 3.424 0.23296 5.11872 0.23296 15.36256 0 30.72256-5.69728 42.46144-17.43488l149.44896-149.41952 0.20224-0.20224 149.27744-149.2736 42.69056-42.69312c94.33344-94.38592 94.33344-247.31648 0-341.64992C855.0784 148.90496 793.2544 125.31456 731.43552 125.31456L731.43552 125.31456 731.43552 125.31456zM731.43552 125.31456" p-id="2839" fill="#dbdbdb"></path></svg>